<?xml version="1.0" encoding="utf-8"?>
<!-- Generator: Adobe Illustrator 16.0.0, SVG Export Plug-In . SVG Version: 6.00 Build 0)  -->
<!DOCTYPE svg PUBLIC "-//W3C//DTD SVG 1.1//EN" "http://www.w3.org/Graphics/SVG/1.1/DTD/svg11.dtd">
<svg version="1.1" id="Layer_4" xmlns="http://www.w3.org/2000/svg" xmlns:xlink="http://www.w3.org/1999/xlink" x="0px" y="0px"
	 width="283.537px" height="283.535px" viewBox="0 0 283.537 283.535" enable-background="new 0 0 283.537 283.535"
	 xml:space="preserve">
<g>
	<linearGradient id="SVGID_1_" gradientUnits="userSpaceOnUse" x1="0" y1="141.7676" x2="283.5371" y2="141.7676">
		<stop  offset="0" style="stop-color:#88EEBE"/>
		<stop  offset="1" style="stop-color:#39CBFF"/>
	</linearGradient>
	<path fill="url(#SVGID_1_)" d="M195.04,273.656c-7.778,7.778-22.836,11.813-33.461,8.966L54.185,253.847
		c-10.625-2.848-21.647-13.87-24.494-24.495L0.913,121.957c-2.847-10.625,1.188-25.683,8.967-33.461L88.497,9.879
		c7.778-7.778,22.836-11.813,33.461-8.966l107.395,28.775c10.625,2.848,21.647,13.87,24.494,24.495l28.777,107.395
		c2.847,10.625-1.188,25.683-8.967,33.461L195.04,273.656z"/>
	<linearGradient id="SVGID_2_" gradientUnits="userSpaceOnUse" x1="124.7861" y1="180.1367" x2="365.5522" y2="180.1367">
		<stop  offset="0" style="stop-color:#17ABFE"/>
		<stop  offset="1" style="stop-color:#39CBFF"/>
	</linearGradient>
	<path fill="url(#SVGID_2_)" d="M203.663,99.254l-78.877,78.878l82.89,82.889l65.981-65.981c4.174-4.174,7.255-10.447,8.788-17.004
		L203.663,99.254z"/>
	<g>
		<g>
			<g>
				<g>
					<rect x="22.607" y="137.184" fill="#F3F3F3" width="98.743" height="37.083"/>
					<rect x="22.607" y="137.184" fill="#CDD5D7" width="98.743" height="8.76"/>
					<g>
						<path fill="#D8E5ED" d="M25.446,141.473h2.545H25.446z"/>
						<rect x="25.446" y="139.973" fill="#879BA6" width="2.545" height="3"/>
					</g>
					<g>
						<path fill="#D8E5ED" d="M30.405,141.473h2.545H30.405z"/>
						<rect x="30.405" y="139.973" fill="#879BA6" width="2.545" height="3"/>
					</g>
					<g>
						<path fill="#D8E5ED" d="M35.366,141.473h2.545H35.366z"/>
						<rect x="35.366" y="139.973" fill="#879BA6" width="2.545" height="3"/>
					</g>
				</g>
				<g>
					<path fill="#B5D1DE" d="M44.282,168.247v-2.176c0-2.402-1.947-4.35-4.35-4.35h-7.613c-2.401,0-4.35,1.947-4.35,4.35v2.176
						H44.282z"/>
					<circle fill="#B5D1DE" cx="36.126" cy="154.653" r="3.807"/>
				</g>
				<g>
					<path fill="#D8E5ED" d="M47.708,157.331h34.5H47.708z"/>
					<rect x="47.708" y="156.331" fill="#B5D1DE" width="34.5" height="2"/>
				</g>
				<g>
					<path fill="#D8E5ED" d="M47.708,161.71h23.096H47.708z"/>
					<rect x="47.708" y="160.71" fill="#B5D1DE" width="23.096" height="2"/>
				</g>
			</g>
			<linearGradient id="SVGID_3_" gradientUnits="userSpaceOnUse" x1="98.3506" y1="168.2676" x2="115.3508" y2="151.2673">
				<stop  offset="0.1848" style="stop-color:#B5DA60"/>
				<stop  offset="1" style="stop-color:#9DEBEF"/>
			</linearGradient>
			<rect x="98.351" y="151.267" fill="url(#SVGID_3_)" width="17" height="17"/>
			<g>
				<polygon fill="#FFFFFF" points="104.288,164.888 100.79,161.39 102.911,159.269 104.288,160.646 110.54,154.394 
					112.661,156.515 				"/>
			</g>
		</g>
		<g>
			<g>
				<g>
					<rect x="22.607" y="183.184" fill="#F3F3F3" width="98.743" height="37.083"/>
					<rect x="22.607" y="183.184" fill="#CDD5D7" width="98.743" height="8.76"/>
					<g>
						<path fill="#D8E5ED" d="M25.446,187.473h2.545H25.446z"/>
						<rect x="25.446" y="185.973" fill="#879BA6" width="2.545" height="3"/>
					</g>
					<g>
						<path fill="#D8E5ED" d="M30.405,187.473h2.545H30.405z"/>
						<rect x="30.405" y="185.973" fill="#879BA6" width="2.545" height="3"/>
					</g>
					<g>
						<path fill="#D8E5ED" d="M35.366,187.473h2.545H35.366z"/>
						<rect x="35.366" y="185.973" fill="#879BA6" width="2.545" height="3"/>
					</g>
				</g>
				<g>
					<path fill="#B5D1DE" d="M44.282,214.247v-2.176c0-2.402-1.947-4.35-4.35-4.35h-7.613c-2.401,0-4.35,1.947-4.35,4.35v2.176
						H44.282z"/>
					<circle fill="#B5D1DE" cx="36.126" cy="200.653" r="3.807"/>
				</g>
				<g>
					<path fill="#D8E5ED" d="M47.708,203.331h34.5H47.708z"/>
					<rect x="47.708" y="202.331" fill="#B5D1DE" width="34.5" height="2"/>
				</g>
				<g>
					<path fill="#D8E5ED" d="M47.708,207.71h23.096H47.708z"/>
					<rect x="47.708" y="206.71" fill="#B5D1DE" width="23.096" height="2"/>
				</g>
			</g>
			<linearGradient id="SVGID_4_" gradientUnits="userSpaceOnUse" x1="98.3506" y1="214.2676" x2="115.3508" y2="197.2673">
				<stop  offset="0.1848" style="stop-color:#B5DA60"/>
				<stop  offset="1" style="stop-color:#9DEBEF"/>
			</linearGradient>
			<rect x="98.351" y="197.267" fill="url(#SVGID_4_)" width="17" height="17"/>
			<g>
				<polygon fill="#FFFFFF" points="104.288,211.138 100.79,207.64 102.911,205.519 104.288,206.896 110.54,200.644 
					112.661,202.765 				"/>
			</g>
		</g>
		<g>
			<g>
				<g>
					<rect x="22.607" y="91.184" fill="#F3F3F3" width="98.743" height="37.083"/>
					<rect x="22.607" y="91.184" fill="#CDD5D7" width="98.743" height="8.76"/>
					<g>
						<path fill="#D8E5ED" d="M25.446,95.473h2.545H25.446z"/>
						<rect x="25.446" y="93.973" fill="#879BA6" width="2.545" height="3"/>
					</g>
					<g>
						<path fill="#D8E5ED" d="M30.405,95.473h2.545H30.405z"/>
						<rect x="30.405" y="93.973" fill="#879BA6" width="2.545" height="3"/>
					</g>
					<g>
						<path fill="#D8E5ED" d="M35.366,95.473h2.545H35.366z"/>
						<rect x="35.366" y="93.973" fill="#879BA6" width="2.545" height="3"/>
					</g>
				</g>
				<g>
					<path fill="#B5D1DE" d="M44.282,122.247v-2.176c0-2.402-1.947-4.35-4.35-4.35h-7.613c-2.401,0-4.35,1.947-4.35,4.35v2.176
						H44.282z"/>
					<circle fill="#B5D1DE" cx="36.126" cy="108.653" r="3.807"/>
				</g>
				<g>
					<path fill="#D8E5ED" d="M47.708,111.331h34.5H47.708z"/>
					<rect x="47.708" y="110.331" fill="#B5D1DE" width="34.5" height="2"/>
				</g>
				<g>
					<path fill="#D8E5ED" d="M47.708,115.71h23.096H47.708z"/>
					<rect x="47.708" y="114.71" fill="#B5D1DE" width="23.096" height="2"/>
				</g>
			</g>
			<linearGradient id="SVGID_5_" gradientUnits="userSpaceOnUse" x1="98.3506" y1="122.2676" x2="115.3508" y2="105.2673">
				<stop  offset="0.1848" style="stop-color:#39CBFF"/>
				<stop  offset="1" style="stop-color:#9DEBEF"/>
			</linearGradient>
			<rect x="98.351" y="105.267" fill="url(#SVGID_5_)" width="17" height="17"/>
			<g>
				<g>
					<polygon fill="#FFFFFF" points="107.013,120.547 101.29,114.83 103.411,112.707 107.013,116.307 110.615,112.707 
						112.736,114.83 					"/>
				</g>
				<g>
					<rect x="105.513" y="108.602" fill="#FFFFFF" width="3" height="8.993"/>
				</g>
			</g>
		</g>
		<g>
			<rect x="22.607" y="61.161" fill="#F3F3F3" width="78" height="18.367"/>
			<linearGradient id="SVGID_6_" gradientUnits="userSpaceOnUse" x1="81.2744" y1="70.3447" x2="100.6074" y2="70.3447">
				<stop  offset="0" style="stop-color:#39CBFF"/>
				<stop  offset="1" style="stop-color:#007ACD"/>
			</linearGradient>
			<rect x="81.274" y="61.161" fill="url(#SVGID_6_)" width="19.333" height="18.367"/>
			<g>
				<rect x="31.273" y="69.345" fill="#B6C2C9" width="38.667" height="2"/>
			</g>
			<g>
				<g>
					<path fill="#FFFFFF" d="M90.273,74.345c-2.757,0-5-2.243-5-5s2.243-5,5-5s5,2.243,5,5S93.03,74.345,90.273,74.345z
						 M90.273,66.345c-1.654,0-3,1.346-3,3s1.346,3,3,3s3-1.346,3-3S91.928,66.345,90.273,66.345z"/>
				</g>
				<g>
					<path fill="#FFFFFF" d="M92.273,72.345l3,3L92.273,72.345z"/>
					
						<rect x="91.652" y="72.845" transform="matrix(0.7071 0.7071 -0.7071 0.7071 79.6817 -44.6792)" fill="#FFFFFF" width="4.243" height="2"/>
				</g>
			</g>
		</g>
	</g>
	<g>
		<g>
			<path fill="#17ABFE" d="M199.53,114.409c-15.058,0-27.308-12.25-27.308-27.308s12.25-27.308,27.308-27.308
				s27.308,12.25,27.308,27.308S214.588,114.409,199.53,114.409z M199.53,61.794c-13.955,0-25.308,11.353-25.308,25.308
				s11.353,25.308,25.308,25.308s25.308-11.353,25.308-25.308S213.485,61.794,199.53,61.794z"/>
		</g>
		<g>
			<path fill="#17ABFE" d="M199.53,114.409c-8.711,0-15.798-12.25-15.798-27.308s7.087-27.308,15.798-27.308
				s15.798,12.25,15.798,27.308S208.241,114.409,199.53,114.409z M199.53,61.794c-7.608,0-13.798,11.353-13.798,25.308
				s6.189,25.308,13.798,25.308s13.798-11.353,13.798-25.308S207.139,61.794,199.53,61.794z"/>
		</g>
		<g>
			<rect x="172.53" y="86.102" fill="#17ABFE" width="54" height="2"/>
		</g>
		<g>
			<rect x="176.338" y="72.256" fill="#17ABFE" width="43.615" height="2"/>
		</g>
		<g>
			<rect x="177.723" y="99.947" fill="#17ABFE" width="43.615" height="2"/>
		</g>
		<g>
			<rect x="199.223" y="60.102" fill="#17ABFE" width="2" height="54"/>
		</g>
	</g>
	<g>
		<g>
			<rect x="150.553" y="268.102" fill="#17ABFE" width="36" height="2"/>
		</g>
		<g>
			<rect x="167.576" y="272.1" fill="#17ABFE" width="1.953" height="2"/>
		</g>
		<g>
			<g>
				<path fill="#17ABFE" d="M159.553,266.102h-6v-6h6V266.102z M155.553,264.102h2v-2h-2V264.102z"/>
			</g>
			<g>
				<path fill="#17ABFE" d="M167.553,266.102h-6v-6h6V266.102z M163.553,264.102h2v-2h-2V264.102z"/>
			</g>
			<g>
				<path fill="#17ABFE" d="M175.553,266.102h-6v-6h6V266.102z M171.553,264.102h2v-2h-2V264.102z"/>
			</g>
			<g>
				<path fill="#17ABFE" d="M183.553,266.102h-6v-6h6V266.102z M179.553,264.102h2v-2h-2V264.102z"/>
			</g>
		</g>
		<g>
			<path fill="#17ABFE" d="M167.553,248.102h-25v-15h25V248.102z M144.553,246.102h21v-11h-21V246.102z"/>
		</g>
		<g>
			<polygon fill="#17ABFE" points="154.605,244.196 142.636,234.66 143.882,233.096 154.605,241.64 165.329,233.096 166.575,234.66 
							"/>
		</g>
		<g>
			<path fill="#17ABFE" d="M174.553,256.868v-3.767h-3v-16.104h25v16.104H180.83L174.553,256.868z M173.553,251.102h3v2.233
				l3.723-2.233h14.277v-12.104h-21V251.102z"/>
		</g>
		<g>
			<rect x="176.553" y="242.102" fill="#17ABFE" width="15" height="2"/>
		</g>
		<g>
			<rect x="176.553" y="246.102" fill="#17ABFE" width="15" height="2"/>
		</g>
		<g>
			<rect x="153.553" y="250.102" fill="#17ABFE" width="2" height="5"/>
		</g>
		<g>
			<rect x="157.553" y="250.102" fill="#17ABFE" width="2" height="3"/>
		</g>
		<g>
			<g>
				<rect x="162.887" y="223.102" fill="#17ABFE" width="2" height="6"/>
			</g>
			<g>
				<rect x="160.887" y="225.102" fill="#17ABFE" width="6" height="2"/>
			</g>
		</g>
	</g>
	<g>
		<linearGradient id="SVGID_7_" gradientUnits="userSpaceOnUse" x1="195.6104" y1="187.2979" x2="231.2061" y2="187.2979">
			<stop  offset="0.1734" style="stop-color:#879BA6"/>
			<stop  offset="0.8935" style="stop-color:#A5B6BE"/>
		</linearGradient>
		<polygon fill="url(#SVGID_7_)" points="231.206,193.07 219.198,205.096 195.61,181.505 207.635,169.5 		"/>
		<g>
			<path fill="#D9E1E4" d="M201.515,175.395L201.515,175.395z"/>
		</g>
		
			<linearGradient id="SVGID_8_" gradientUnits="userSpaceOnUse" x1="275.7939" y1="-122.2959" x2="387.5381" y2="-122.2959" gradientTransform="matrix(0.7071 -0.7071 0.7071 0.7071 18.6792 461.6014)">
			<stop  offset="0.1734" style="stop-color:#B6C2C9"/>
			<stop  offset="0.8935" style="stop-color:#879BA6"/>
		</linearGradient>
		<path fill="url(#SVGID_8_)" d="M206.228,101.092c-10.574-10.559-24.611-16.379-39.52-16.371
			c-14.945-0.004-29.003,5.836-39.573,16.453c-10.519,10.574-16.311,24.592-16.307,39.448c0.012,30.811,25.085,55.893,55.9,55.877
			c14.959,0,29.021-5.856,39.599-16.474c10.518-10.565,16.299-24.571,16.299-39.427C222.626,125.69,216.806,111.652,206.228,101.092
			z"/>
		<linearGradient id="SVGID_9_" gradientUnits="userSpaceOnUse" x1="122.4971" y1="140.6094" x2="210.9736" y2="140.6094">
			<stop  offset="0" style="stop-color:#70D1D6"/>
			<stop  offset="1" style="stop-color:#007ACD"/>
		</linearGradient>
		<path fill="url(#SVGID_9_)" d="M210.974,140.495c0.023,11.886-4.572,23.029-12.943,31.408
			c-17.248,17.265-45.327,17.276-62.583,0.008c-8.328-8.327-12.926-19.406-12.95-31.219c-0.023-11.87,4.57-23.014,12.93-31.376
			c8.353-8.355,19.452-12.958,31.302-12.954c11.831-0.008,22.959,4.595,31.306,12.934
			C206.357,117.616,210.957,128.684,210.974,140.495z"/>
		<g>
			<path fill="#D9E1E4" d="M142.263,165.096c-6.52-6.518-10.118-15.19-10.134-24.42c-0.021-9.287,3.57-18.004,10.114-24.544
				l2.121,2.121c-5.976,5.973-9.255,13.934-9.235,22.416c0.014,8.432,3.301,16.354,9.255,22.306L142.263,165.096z"/>
		</g>
		
			<linearGradient id="SVGID_10_" gradientUnits="userSpaceOnUse" x1="316.876" y1="-18.5244" x2="346.459" y2="-18.5244" gradientTransform="matrix(0.7071 -0.7071 0.7071 0.7071 18.6792 461.6014)">
			<stop  offset="0.1734" style="stop-color:#D9E1E4"/>
			<stop  offset="0.8935" style="stop-color:#A5B6BE"/>
		</linearGradient>
		<polygon fill="url(#SVGID_10_)" points="273.366,226.325 252.448,247.243 206.841,201.636 227.759,180.726 		"/>
		
			<linearGradient id="SVGID_11_" gradientUnits="userSpaceOnUse" x1="316.876" y1="-12.9805" x2="346.459" y2="-12.9805" gradientTransform="matrix(0.7071 -0.7071 0.7071 0.7071 18.6792 461.6014)">
			<stop  offset="0" style="stop-color:#2642DC"/>
			<stop  offset="1" style="stop-color:#39CBFF"/>
		</linearGradient>
		<polygon fill="url(#SVGID_11_)" points="273.366,226.325 252.448,247.243 214.686,209.473 235.6,188.562 		"/>
		<g>
			
				<rect x="224.877" y="207.315" transform="matrix(0.7071 0.7071 -0.7071 0.7071 218.1605 -110.0118)" fill="#FFFFFF" width="33.975" height="2"/>
		</g>
		
			<linearGradient id="SVGID_12_" gradientUnits="userSpaceOnUse" x1="320.249" y1="18.8281" x2="343.0811" y2="18.8281" gradientTransform="matrix(0.7071 -0.7071 0.7071 0.7071 18.6792 461.6014)">
			<stop  offset="0.1734" style="stop-color:#B6C2C9"/>
			<stop  offset="0.8935" style="stop-color:#A5B6BE"/>
		</linearGradient>
		<path fill="url(#SVGID_12_)" d="M274.854,232.59c0,8.913-7.229,16.137-16.149,16.141c-1.285-1.293-2.578-2.578-3.867-3.876
			c5.382-5.381,10.764-10.759,16.138-16.137C272.267,230.003,273.557,231.296,274.854,232.59z"/>
	</g>
	<g>
		<linearGradient id="SVGID_13_" gradientUnits="userSpaceOnUse" x1="35.5518" y1="70.2676" x2="238.5518" y2="70.2676">
			<stop  offset="0" style="stop-color:#39CBFF"/>
			<stop  offset="1" style="stop-color:#17ABFE"/>
		</linearGradient>
		<polygon fill="url(#SVGID_13_)" points="238.552,95.768 236.552,95.768 236.552,46.768 37.552,46.768 37.552,55.768 
			35.552,55.768 35.552,44.768 238.552,44.768 		"/>
	</g>
	<linearGradient id="SVGID_14_" gradientUnits="userSpaceOnUse" x1="120.8037" y1="45.7676" x2="168.3008" y2="45.7676">
		<stop  offset="0" style="stop-color:#39CBFF"/>
		<stop  offset="1" style="stop-color:#17ABFE"/>
	</linearGradient>
	<circle fill="url(#SVGID_14_)" cx="144.552" cy="45.768" r="23.749"/>
	<g>
		<circle fill="#FFFFFF" cx="135.553" cy="41.768" r="2"/>
		<g>
			<path fill="#FFFFFF" d="M134.553,51.768h-2v-5c0-1.103,0.897-2,2-2h3.41l4.297,4.294l-1.414,1.414l-3.711-3.708h-2.582V51.768z"
				/>
		</g>
		<g>
			<polygon fill="#FFFFFF" points="138.553,57.768 136.553,57.768 136.553,51.768 135.553,51.768 135.553,57.768 133.553,57.768 
				133.553,49.768 138.553,49.768 			"/>
		</g>
		<rect x="133.553" y="45.768" fill="#FFFFFF" width="5" height="6"/>
		<g>
			<path fill="#FFFFFF" d="M148.553,44.768h-6v-2.021c-1.246-0.939-2-2.416-2-3.979c0-2.757,2.243-5,5-5s5,2.243,5,5
				c0,1.563-0.754,3.04-2,3.979V44.768z M144.553,42.768h2v-1.13l0.497-0.289c0.941-0.548,1.503-1.513,1.503-2.581
				c0-1.654-1.346-3-3-3s-3,1.346-3,3c0,1.068,0.562,2.033,1.503,2.581l0.497,0.289V42.768z"/>
		</g>
		<g>
			<rect x="142.552" y="45.768" fill="#FFFFFF" width="6" height="2"/>
		</g>
		<circle fill="#FFFFFF" cx="153.553" cy="41.768" r="2"/>
		<g>
			<rect x="151.553" y="45.768" fill="#FFFFFF" width="4" height="12"/>
		</g>
		<g>
			<path fill="#FFFFFF" d="M156.553,50.768h-2v-4h-2v4h-2v-4c0-1.103,0.897-2,2-2h2c1.103,0,2,0.897,2,2V50.768z"/>
		</g>
	</g>
	<g>
		<g>
			<g>
				<polygon fill="#FFFFFF" points="243.452,112.668 232.651,112.668 232.651,101.867 238.489,101.867 238.489,103.867 
					234.651,103.867 234.651,110.668 241.452,110.668 241.452,107.768 243.452,107.768 				"/>
			</g>
			<g>
				<polygon fill="#FFFFFF" points="238.485,109.178 235.782,106.475 237.196,105.061 238.493,106.357 242.849,102.056 
					244.255,103.479 				"/>
			</g>
			<g>
				<polygon fill="#FFFFFF" points="243.452,127.668 232.651,127.668 232.651,116.867 238.489,116.867 238.489,118.867 
					234.651,118.867 234.651,125.668 241.452,125.668 241.452,122.768 243.452,122.768 				"/>
			</g>
			<g>
				<polygon fill="#FFFFFF" points="238.485,124.178 235.782,121.475 237.196,120.061 238.493,121.357 242.849,117.056 
					244.255,118.479 				"/>
			</g>
			<g>
				<rect x="245.552" y="104.768" fill="#FFFFFF" width="15" height="2"/>
			</g>
			<g>
				<rect x="245.552" y="108.768" fill="#FFFFFF" width="15" height="2"/>
			</g>
			<g>
				<rect x="245.552" y="119.867" fill="#FFFFFF" width="15" height="2"/>
			</g>
			<g>
				<rect x="245.552" y="123.867" fill="#FFFFFF" width="15" height="2"/>
			</g>
		</g>
		<g>
			<g>
				<polygon fill="#FFFFFF" points="243.452,142.668 232.651,142.668 232.651,131.867 238.489,131.867 238.489,133.867 
					234.651,133.867 234.651,140.668 241.452,140.668 241.452,137.768 243.452,137.768 				"/>
			</g>
			<g>
				<polygon fill="#FFFFFF" points="238.485,139.178 235.782,136.475 237.196,135.061 238.493,136.357 242.849,132.056 
					244.255,133.479 				"/>
			</g>
			<g>
				<polygon fill="#FFFFFF" points="243.452,157.668 232.651,157.668 232.651,146.867 238.489,146.867 238.489,148.867 
					234.651,148.867 234.651,155.668 241.452,155.668 241.452,152.768 243.452,152.768 				"/>
			</g>
			<g>
				<polygon fill="#FFFFFF" points="238.485,154.178 235.782,151.475 237.196,150.061 238.493,151.357 242.849,147.056 
					244.255,148.479 				"/>
			</g>
			<g>
				<rect x="245.552" y="134.768" fill="#FFFFFF" width="15" height="2"/>
			</g>
			<g>
				<rect x="245.552" y="138.768" fill="#FFFFFF" width="15" height="2"/>
			</g>
			<g>
				<rect x="245.552" y="149.867" fill="#FFFFFF" width="15" height="2"/>
			</g>
			<g>
				<rect x="245.552" y="153.867" fill="#FFFFFF" width="15" height="2"/>
			</g>
		</g>
	</g>
	<g>
		<g>
			<circle fill="#FFFFFF" cx="167.383" cy="140.104" r="46"/>
			<g>
				<defs>
					<circle id="SVGID_479_" cx="167.383" cy="140.104" r="46"/>
				</defs>
				<clipPath id="SVGID_15_">
					<use xlink:href="#SVGID_479_"  overflow="visible"/>
				</clipPath>
				<linearGradient id="SVGID_16_" gradientUnits="userSpaceOnUse" x1="120.8359" y1="140.1045" x2="213.9297" y2="140.1045">
					<stop  offset="0" style="stop-color:#9DEBEF"/>
					<stop  offset="0.8152" style="stop-color:#39CBFF"/>
				</linearGradient>
				<circle clip-path="url(#SVGID_15_)" fill="url(#SVGID_16_)" cx="167.383" cy="140.104" r="46.547"/>
				<g clip-path="url(#SVGID_15_)">
					<linearGradient id="SVGID_17_" gradientUnits="userSpaceOnUse" x1="141.3145" y1="184.1309" x2="193.0225" y2="184.1309">
						<stop  offset="0" style="stop-color:#F3F3F3"/>
						<stop  offset="1" style="stop-color:#39CBFF"/>
					</linearGradient>
					<path fill="url(#SVGID_17_)" d="M141.314,205.183v-36.168c0-3.278,3.085-5.937,6.894-5.937h37.919
						c3.808,0,6.896,2.658,6.896,5.937v36.168H141.314z"/>
					<linearGradient id="SVGID_18_" gradientUnits="userSpaceOnUse" x1="151.1221" y1="185.8066" x2="183.2158" y2="185.8066">
						<stop  offset="0" style="stop-color:#39CBFF"/>
						<stop  offset="1" style="stop-color:#17ABFE"/>
					</linearGradient>
					<path fill="url(#SVGID_18_)" d="M151.122,205.183v-33.558c0-2.869,1.915-5.193,4.277-5.193h23.535
						c2.364,0,4.281,2.324,4.281,5.193v33.558H151.122z"/>
					<linearGradient id="SVGID_19_" gradientUnits="userSpaceOnUse" x1="157.4561" y1="169.3066" x2="176.8799" y2="169.3066">
						<stop  offset="0" style="stop-color:#F3F3F3"/>
						<stop  offset="1" style="stop-color:#39CBFF"/>
					</linearGradient>
					<path fill="url(#SVGID_19_)" d="M167.169,175.535c5.354,0,9.711-4.356,9.711-9.71v-2.747h-19.424v2.747
						C157.456,171.179,161.813,175.535,167.169,175.535z"/>
					<linearGradient id="SVGID_20_" gradientUnits="userSpaceOnUse" x1="161.9385" y1="157.457" x2="172.3975" y2="157.457">
						<stop  offset="0" style="stop-color:#F3F3F3"/>
						<stop  offset="1" style="stop-color:#D9E1E4"/>
					</linearGradient>
					<path fill="url(#SVGID_20_)" d="M172.397,165.825c0,2.888-2.342,5.229-5.229,5.229l0,0c-2.889,0-5.23-2.341-5.23-5.229v-16.734
						c0-2.888,2.342-5.229,5.23-5.229l0,0c2.887,0,5.229,2.342,5.229,5.229V165.825z"/>
					<linearGradient id="SVGID_21_" gradientUnits="userSpaceOnUse" x1="139.0977" y1="123.9824" x2="163.8398" y2="123.9824">
						<stop  offset="0" style="stop-color:#007ACD"/>
						<stop  offset="1" style="stop-color:#39CBFF"/>
					</linearGradient>
					<ellipse fill="url(#SVGID_21_)" cx="151.469" cy="123.983" rx="12.371" ry="12.865"/>
					<linearGradient id="SVGID_22_" gradientUnits="userSpaceOnUse" x1="140.582" y1="138.0166" x2="156.417" y2="138.0166">
						<stop  offset="0" style="stop-color:#007ACD"/>
						<stop  offset="1" style="stop-color:#39CBFF"/>
					</linearGradient>
					<ellipse fill="url(#SVGID_22_)" cx="148.5" cy="138.018" rx="7.917" ry="8.233"/>
					<linearGradient id="SVGID_23_" gradientUnits="userSpaceOnUse" x1="142.0674" y1="131.584" x2="157.9014" y2="131.584">
						<stop  offset="0" style="stop-color:#F3F3F3"/>
						<stop  offset="1" style="stop-color:#D9E1E4"/>
					</linearGradient>
					<ellipse fill="url(#SVGID_23_)" cx="149.984" cy="131.584" rx="7.917" ry="8.234"/>
					<linearGradient id="SVGID_24_" gradientUnits="userSpaceOnUse" x1="173.2412" y1="138.0166" x2="189.0771" y2="138.0166">
						<stop  offset="0" style="stop-color:#007ACD"/>
						<stop  offset="1" style="stop-color:#39CBFF"/>
					</linearGradient>
					<ellipse fill="url(#SVGID_24_)" cx="181.159" cy="138.018" rx="7.918" ry="8.233"/>
					<linearGradient id="SVGID_25_" gradientUnits="userSpaceOnUse" x1="146.8008" y1="132.1934" x2="182.1035" y2="132.1934">
						<stop  offset="0" style="stop-color:#F3F3F3"/>
						<stop  offset="1" style="stop-color:#D9E1E4"/>
					</linearGradient>
					<path fill="url(#SVGID_25_)" d="M182.104,139.254c0,9.748-7.903,17.651-17.652,17.651l0,0c-9.749,0-17.65-7.903-17.65-17.651
						v-14.122c0-9.748,7.901-17.651,17.65-17.651l0,0c9.749,0,17.652,7.903,17.652,17.651V139.254z"/>
					<linearGradient id="SVGID_26_" gradientUnits="userSpaceOnUse" x1="149.7939" y1="118.9805" x2="192.9805" y2="118.9805">
						<stop  offset="0" style="stop-color:#007ACD"/>
						<stop  offset="1" style="stop-color:#39CBFF"/>
					</linearGradient>
					<path fill="url(#SVGID_26_)" d="M180.405,112.212l12.575,12.575l-2.276,2.273c-6.957,6.958-18.235,6.958-25.191,0
						l-15.719-15.719C158.549,103.516,171.997,103.805,180.405,112.212z"/>
					<g>
						<path fill="#A5B6BE" d="M162,132.774h-2c0-1.84-1.496-3.337-3.335-3.337c-1.84,0-3.336,1.497-3.336,3.337h-2
							c0-2.942,2.394-5.337,5.336-5.337C159.606,127.438,162,129.832,162,132.774z"/>
					</g>
					<g>
						<rect x="160.623" y="144.261" fill="#A5B6BE" width="6.681" height="2"/>
					</g>
				</g>
			</g>
		</g>
	</g>
</g>
</svg>
